<?xml version="1.0" encoding="UTF-8"?><svg id="Layer_2" xmlns="http://www.w3.org/2000/svg" viewBox="0 0 299.4068 139.5214"><g id="Components"><g id="_76346a2b-9e7d-41dd-bb45-f153f0711f62_1"><rect x="29.4253" width="23.337" height="23.729" rx="3.4397" ry="3.4397" style="fill:#0f1925;"/><path d="M67.7398,118.3395h-10.7759c-3.1332,0-4.7893-1.6561-4.7893-4.7893v-39.3191c0-1.9241-.5448-3.1509-2.0821-4.6882l-24.2949-24.2949c-1.375-1.375-2.6457-1.8862-4.6882-1.8862h-5.6819c-1.9608,0-3.4395,1.4787-3.4395,3.4397v14.3026c0,1.9608,1.4787,3.4395,3.4395,3.4395h10.7759c3.1333,0,4.7895,1.6561,4.7895,4.7893v39.3191c0,1.9243.5448,3.1511,2.0819,4.6883l24.2951,24.2948c1.2867,1.2867,2.7766,1.8862,4.6883,1.8862h5.6817c1.9608,0,3.4395-1.4787,3.4395-3.4395v-14.3026c0-1.9609-1.4787-3.4397-3.4395-3.4397Z" style="fill:#0f1925;"/><path d="M195.287,118.3395h-27.166c-3.1332,0-4.7893-1.6561-4.7893-4.7893V30.8693c0-1.9639-.5641-3.366-1.8861-4.6883L137.1508,1.8862h-.0001c-1.2164-1.2163-2.8814-1.8862-4.6882-1.8862h-19.7692c-1.9609,0-3.4398,1.4787-3.4398,3.4395v14.3026c0,1.9609,1.4788,3.4397,3.4398,3.4397h24.6673c3.1332,0,4.7893,1.6561,4.7893,4.7893v82.6809c0,1.9639.5641,3.366,1.8861,4.6883l24.2951,24.2947c1.2163,1.2164,2.8811,1.8863,4.6881,1.8863h22.2679c1.9609,0,3.4398-1.4787,3.4398-3.4395v-14.3026c0-1.9609-1.4788-3.4397-3.4398-3.4397Z" style="fill:#0f1925;"/><rect x="112.64" y="118.3395" width="28.0587" height="21.1818" rx="3.4397" ry="3.4397" style="fill:#0f1925;"/><path d="M281.6646,74.2561h14.3026c1.9608,0,3.4395-1.4787,3.4395-3.4397V31.0652c0-1.9241-.5448-3.151-2.0821-4.6883l-24.2948-24.2948c-1.375-1.375-2.6457-1.8862-4.6883-1.8862h-7.4453c-1.9758,0-3.064.2621-4.6881,1.8862l-67.0165,70.1513c-1.3153,1.3193-1.8765,2.7193-1.8765,4.6785v7.2494c0,1.8024.6422,3.2483,2.0821,4.6882l24.2948,24.2948c1.3749,1.3751,2.6455,1.8863,4.6883,1.8863h54.8593c3.1332,0,4.7893,1.6561,4.7893,4.7893v16.2619c0,1.9608,1.4787,3.4395,3.4395,3.4395h14.3026c1.9609,0,3.4398-1.4787,3.4398-3.4395v-11.3638c0-1.924-.5448-3.1509-2.0821-4.6883l-24.2951-24.2947c-1.3749-1.3751-2.6455-1.8863-4.6881-1.8863h-54.8595c-3.1332,0-4.7893-1.6561-4.7893-4.7893v-7.0143l56.9849-60.6674h7.9537c3.1333,0,4.7895,1.6561,4.7895,4.7893v44.6493c0,1.9609,1.4787,3.4397,3.4395,3.4397Z" style="fill:#0f1925;"/><rect y="118.187" width="28.2425" height="21.3343" rx="3.1784" ry="3.1784" style="fill:#0f1925;"/></g></g></svg>